/* XPM */
static char * losange_xpm[] = {
"22 22 23 1",
" 	c #282A36",
".	c #373949",
"+	c #3D3F51",
"@	c #2A2C39",
"#	c #383B4B",
"$	c #44475A",
"%	c #3D4051",
"&	c #373A49",
"*	c #444759",
"=	c #3C3F50",
"-	c #292B37",
";	c #373A4A",
">	c #2A2C38",
",	c #383A4B",
"'	c #434659",
")	c #3C3F51",
"!	c #404356",
"~	c #404355",
"{	c #2C2F3C",
"]	c #414456",
"^	c #2D2F3C",
"/	c #2D303D",
"(	c #2B2E3B",
"          .+@         ",
"         #$$%         ",
"        &*$$$=-       ",
"       ;$$$$$$%>      ",
"      ,'$$$$$$$=      ",
"     .$$$$$$$$$$=>    ",
"    ,$$$$$$$$$$$$%    ",
"   ;'$$$$$$$$$$$$$=   ",
"  &$$$$$$$$$$$$$$$$%@ ",
" #*$$$$$$$$$$$$$$$$$) ",
".$$$$$$$$$$$$$$$$$$$$=",
"+$$$$$$$$$$$$$$$$$$$$!",
"@%$$$$$$$$$$$$$$$$$$~{",
"  =$$$$$$$$$$$$$$$$]^ ",
"  -%$$$$$$$$$$$$$$!-  ",
"   >=$$$$$$$$$$$$~/   ",
"     =$$$$$$$$$$!(    ",
"     >%$$$$$$$$~(     ",
"       =$$$$$$!/      ",
"        %$$$$]-       ",
"        @)$$~^        ",
"          =!{         "};
